<svg xmlns="http://www.w3.org/2000/svg">
<symbol id="cat-pro" viewBox="0 0 67 28">
<g clip-path="url(#clip0_135_3258)">
<path d="M61.5591 2.87843C62.1364 1.95997 62.9036 1.17573 63.8091 0.578427C64.3091 0.228427 64.6091 0.228427 64.9091 0.878427C65.3091 1.82843 65.6591 2.82843 65.3591 3.87843C65.3045 4.05651 65.2942 4.24523 65.3291 4.4282C65.3639 4.61117 65.4429 4.78288 65.5591 4.92843C65.8591 5.32843 66.1091 5.72843 66.3591 6.07843C66.6994 6.51031 66.9201 7.02408 66.9991 7.5682C67.078 8.11231 67.0125 8.66763 66.8091 9.17843C66.6256 9.67433 66.5908 10.213 66.7091 10.7284C66.809 11.2234 66.809 11.7334 66.7091 12.2284C66.6687 12.5991 66.5187 12.9494 66.2782 13.2344C66.0377 13.5194 65.7177 13.7262 65.3591 13.8284C64.7196 13.9501 64.1488 14.3069 63.7591 14.8284C63.7119 14.9052 63.6457 14.9686 63.5669 15.0124C63.488 15.0562 63.3993 15.0789 63.3091 15.0784C62.7091 15.1784 61.2091 13.8284 61.2091 13.2284V12.9284C61.2591 11.1284 61.1591 10.9784 59.5091 10.2284C59.1638 10.1066 58.8544 9.90037 58.6091 9.62843C58.3091 9.22843 57.9091 9.27843 57.4591 9.42843C57.0091 9.57843 56.7591 9.87843 56.8091 10.3784C56.9599 11.5889 57.0101 12.8097 56.9591 14.0284C56.9624 14.1675 56.9966 14.3041 57.0591 14.4284C58.6091 16.6784 59.2091 19.3284 59.9591 21.8784C60.5591 23.8284 61.6591 24.8784 63.6591 25.0284C63.9792 25.054 64.2968 25.1041 64.6091 25.1784C65.02 25.2444 65.4017 25.4322 65.7048 25.7174C66.0078 26.0027 66.2183 26.3723 66.3091 26.7784C66.6591 27.8284 66.4591 28.0784 65.4091 28.0784H62.1591C61.7384 28.0997 61.3259 27.9562 61.0091 27.6784C60.5031 27.2514 59.9282 26.9132 59.3091 26.6784C58.6247 26.4258 58.0323 25.9728 57.6091 25.3784C57.0234 24.5602 56.3531 23.806 55.6091 23.1284C54.2091 21.6784 52.7091 20.2784 51.4091 18.7784C50.4195 17.7563 49.8486 16.4006 49.8091 14.9784C49.8091 14.5284 49.7091 14.3284 49.2091 14.5284C49.0594 14.6234 48.8864 14.6753 48.7091 14.6784C47.3091 14.6784 46.6091 15.5284 46.1091 16.7784C45.6591 17.8284 45.0591 18.8284 44.5091 19.8784C44.1972 20.5357 44.0269 21.2511 44.0091 21.9784C44.0091 23.1784 44.3091 23.5784 45.4091 23.9784C46.1091 24.2284 46.7591 24.4784 47.1091 25.1784C47.5091 25.9784 47.4091 26.1784 46.5591 26.2284H43.1591C42.9631 26.2478 42.7659 26.2052 42.5955 26.1065C42.425 26.0078 42.2899 25.8581 42.2091 25.6784L41.3091 24.1784C41.0438 23.7871 40.874 23.3389 40.8132 22.87C40.7524 22.4011 40.8024 21.9245 40.9591 21.4784C41.1755 20.6102 41.1926 19.7042 41.0091 18.8284C40.8831 18.2185 40.8939 17.5882 41.0409 16.9829C41.1879 16.3777 41.4674 15.8126 41.8591 15.3284C42.1591 14.9784 42.1591 14.8284 41.6591 14.7284C39.6146 14.2941 37.6325 13.6054 35.7591 12.6784C35.7459 12.6784 35.7331 12.6732 35.7238 12.6638C35.7144 12.6544 35.7091 12.6417 35.7091 12.6284C34.1091 12.0284 33.8091 12.1284 33.3591 13.7784C32.9591 15.1784 32.5591 16.5784 32.2591 18.0284C31.9091 19.6284 32.3091 21.1284 32.8091 22.6284C33.0091 23.2284 33.6091 23.1784 34.0591 23.3284C35.0591 23.6284 35.9091 24.0284 36.3091 25.0784C36.6591 25.8784 36.6091 25.9784 35.7591 25.9784C34.9091 25.9784 34.0591 25.9284 33.1591 25.9784C32.3997 25.9922 31.6584 25.7451 31.0591 25.2784C28.6591 23.6784 27.9591 21.2284 27.7591 18.5784C27.6591 16.9284 26.7591 15.6284 25.7091 14.3784C25.5091 14.1284 25.3091 14.0284 25.0091 14.2284C23.9359 14.8202 22.8153 15.3219 21.6591 15.7284C19.2462 16.5804 17.1289 18.1077 15.5591 20.1284C14.9729 20.8659 14.5933 21.746 14.4591 22.6784C14.3091 23.5784 14.5591 23.9784 15.4591 24.2284C16.3591 24.4784 16.8091 24.9784 16.9091 25.9284C16.9591 26.3284 16.8091 26.5284 16.4091 26.5284H12.3591C12.2266 26.519 12.0982 26.4778 11.9851 26.4081C11.8719 26.3385 11.7772 26.2425 11.7091 26.1284C11.081 25.3508 10.7449 24.3779 10.7591 23.3784C10.7329 21.6509 10.8837 19.9252 11.2091 18.2284C11.2759 17.7203 11.4656 17.2361 11.7618 16.8178C12.0581 16.3996 12.4519 16.06 12.9091 15.8284C15.8591 14.4284 17.4091 11.7784 18.8091 9.02843C19.1091 8.47843 18.8591 8.37843 18.3591 8.42843C16.9598 8.62269 15.634 9.17368 14.5091 10.0284C13.0362 11.1029 11.6487 12.2897 10.3591 13.5784C8.98394 14.9753 7.16046 15.8427 5.20911 16.0284C1.55911 16.2284 -0.140885 14.1784 0.00911497 10.8784C0.0426462 9.75323 0.466939 8.67482 1.20912 7.82843C1.46713 7.49393 1.81898 7.24392 2.21975 7.11033C2.62052 6.97674 3.05201 6.96563 3.45912 7.07843C4.20912 7.27843 4.40911 7.67843 4.10911 8.42843C3.95911 8.72843 3.75911 8.97843 3.60911 9.27843C3.39341 9.58491 3.22488 9.92198 3.10911 10.2784C2.55911 11.7784 3.30911 12.8284 4.85911 12.9784C6.50911 13.1284 7.85912 12.4284 9.10912 11.4284C10.6151 10.2226 11.9595 8.82775 13.1091 7.27843C13.9687 6.14713 15.0512 5.20407 16.2895 4.50749C17.5279 3.81091 18.8959 3.37559 20.3091 3.22843C21.4591 3.07843 22.4591 2.57843 23.5591 2.27843C25.6164 1.65123 27.7586 1.34761 29.9091 1.37843C30.9052 1.41991 31.8974 1.23172 32.8091 0.828427C35.2591 -0.171573 37.8091 -0.171573 40.3591 0.328427C42.3591 0.728427 44.3591 1.22843 46.3091 1.72843C47.4696 1.94467 48.6629 1.91057 49.8091 1.62843C52.0034 1.07219 54.248 0.737189 56.5091 0.628427C57.9904 0.55636 59.4667 0.848196 60.8091 1.47843C61.8091 1.92843 61.8091 1.92843 61.5591 2.87843Z" fill="black"/>
</g>
</symbol>

<symbol width="36" height="50" id="cat-slim" viewBox="0 0 36 50">
<g clip-path="url(#clip0_135_3256)">
<path d="M28.2034 0H28.008C27.6778 0.187081 27.415 0.473924 27.2571 0.819588C26.968 1.37738 26.7453 1.96735 26.5937 2.57732C26.5612 2.76073 26.4688 2.92811 26.331 3.05315C26.1932 3.17818 26.0179 3.25377 25.8326 3.26804C25.2658 3.36597 24.7288 3.59243 24.2626 3.93012C23.7965 4.26781 23.4135 4.7078 23.1429 5.21649C22.7708 5.87697 22.4526 6.5665 22.1914 7.27835C21.4611 9.17526 20.9006 11.134 20.2114 13.0464C19.8874 13.9175 19.872 13.9175 18.8949 13.9175C17.7274 13.9175 17.8097 13.7371 17.7943 15.0258C17.7943 15.433 17.9177 15.6392 18.3497 15.6186C18.4834 15.6186 18.684 15.5515 18.7354 15.7268C18.7869 15.9021 18.612 15.9794 18.5091 16.0825C17.8994 16.7029 17.1276 17.1388 16.2823 17.3402C15.3051 17.6031 14.3074 17.8093 13.356 18.1289C10.9131 18.9485 8.65543 20.0928 6.89657 22.0309C5.86814 23.2347 5.04455 24.6001 4.45886 26.0722C2.57143 30.5258 1.656 35.2165 0.946286 39.9536C0.612 42.1753 0.375429 44.4072 0.195429 46.6546C0.102857 47.7577 0 48.8763 0 50H17.1411C17.1696 49.7731 17.1283 49.5429 17.0229 49.3402C16.858 48.9289 16.5901 48.5672 16.2451 48.29C15.9 48.0128 15.4895 47.8295 15.0531 47.7577C14.6931 47.6753 14.652 47.567 14.8731 47.2835C15.2338 46.801 15.5103 46.2607 15.6909 45.6856C16.5291 43.2062 16.8531 40.6186 17.2594 38.0567C17.4889 36.0999 18.0894 34.2051 19.0286 32.4742C19.7611 31.2002 20.7382 30.0842 21.9034 29.1907C22.3303 28.866 22.3457 28.866 22.4177 29.4175C22.4691 29.7835 22.4794 30.1598 22.5051 30.5309C22.6595 32.9662 22.6285 35.4097 22.4126 37.8402C22.2184 39.7242 22.1926 41.6217 22.3354 43.5103C22.5399 45.7029 22.9304 47.8739 23.5029 50H30.3429C30.2536 49.442 29.9973 48.9243 29.6078 48.5156C29.2184 48.1069 28.7143 47.8264 28.1623 47.7113C27.5177 47.6087 26.8587 47.6438 26.2286 47.8144C25.92 47.8866 25.7914 47.8144 25.7657 47.4794C25.5529 44.7505 25.7261 42.0051 26.28 39.3247C26.966 36.2304 27.4912 33.1025 27.8537 29.9536C27.9887 28.6819 28.3881 27.4528 29.0263 26.3454C29.6383 25.2526 30.1731 24.1186 30.7749 23.0206C31.0138 22.6214 31.1575 22.1723 31.195 21.7083C31.2325 21.2443 31.1626 20.7779 30.9909 20.3454C30.852 19.9794 30.7183 19.6082 30.5486 19.2577C30.0343 18.2526 29.52 17.2577 29.0469 16.2423C28.7949 15.7268 28.8514 15.6649 29.412 15.6495C30.2503 15.6495 30.2503 15.6495 30.2657 14.8041C30.2657 14.6907 30.2657 14.5773 30.2657 14.4639C30.2657 14.1082 30.132 13.9124 29.7514 13.9485C29.4943 13.9485 29.2371 13.9485 28.9697 13.9485C28.6149 13.9485 28.512 13.799 28.5994 13.433C28.7729 12.838 29.1142 12.306 29.5823 11.9009C30.0503 11.4958 30.6252 11.2349 31.2377 11.1495C32.3772 11.0505 33.5251 11.1252 34.6423 11.3711C34.7712 11.4118 34.9109 11.4001 35.0312 11.3383C35.1515 11.2766 35.2427 11.1699 35.2851 11.0412C35.4909 10.5258 35.7171 10.0103 35.9486 9.49484C36.001 9.40339 36.0242 9.29801 36.015 9.19293C36.0058 9.08785 35.9647 8.98812 35.8971 8.90722C34.2514 6.81443 32.4669 4.86082 30.0343 3.60825C29.9168 3.55754 29.8138 3.47814 29.7347 3.3773C29.6557 3.27646 29.6031 3.15738 29.5817 3.03093C29.444 2.29408 29.225 1.57487 28.9286 0.886598C28.7895 0.519904 28.5349 0.20865 28.2034 0V0Z" fill="black"/>
</g>
</symbol>



</svg>
